<?xml version="1.0"?>
<svg data-generator-version="9" height="330" viewBox="0 0 300 330" width="300" xmlns="http://www.w3.org/2000/svg" xmlns:xlink="http://www.w3.org/1999/xlink">
  <rect fill="#f6f6f7" height="330" width="300" x="0" y="0"/>
  <rect fill="#ffffff" height="57" rx="2" ry="2" width="290" x="5" xmlns="http://www.w3.org/2000/svg" y="5"/>
  <svg height="57" preserveAspectRatio="xMidYMid meet" viewBox="0 0 508 50" width="290" x="5" xmlns="http://www.w3.org/2000/svg" y="5">
    <line class="color1" stroke="#A4A6A9" stroke-linecap="round" stroke-width="16" x1="135" x2="372" y1="25" y2="25"/>
  </svg>
  <svg data-aspect-ratio="wide" data-slug="column_stacked" data-variant="e" height="107" preserveAspectRatio="none" viewBox="0 0 272 102" width="216" x="41" xmlns="http://www.w3.org/2000/svg" y="67">
    <g id="ref2241" transform="translate(17914 11474)">
      <clipPath clip-rule="evenodd" id="ref2238">
        <path d="M -17914 -11474L -17642 -11474L -17642 -11372L -17914 -11372L -17914 -11474Z" fill="#FFFFFF"/>
      </clipPath>
      <g clip-path="url(#ref2238)" id="ref2240">
        <path d="M -17914 -11474L -17642 -11474L -17642 -11372L -17914 -11372L -17914 -11474Z" fill="#FFFFFF"/>
        <g id="ref2239">
          <use fill="#FFFFFF" transform="translate(-17914 -11474)" xlink:href="#ref2242"/>
        </g>
        <g class="color1">
          <use fill="#62bad4" transform="translate(-17910 -11402.3)" xlink:href="#ref2243"/>
        </g>
        <g class="color2">
          <use fill="#4276BE" transform="matrix(1 0 0 -1 -17910 -11402.3)" xlink:href="#ref2244"/>
        </g>
        <g class="color1">
          <use fill="#62bad4" transform="translate(-17880 -11396)" xlink:href="#ref2247"/>
        </g>
        <g class="color2">
          <use fill="#4276BE" transform="matrix(1 0 0 -1 -17880 -11395)" xlink:href="#ref2247"/>
        </g>
        <g class="color1">
          <use fill="#62bad4" transform="translate(-17850 -11419)" xlink:href="#ref2250"/>
        </g>
        <g class="color2">
          <use fill="#4276BE" transform="matrix(1 0 0 -1 -17850 -11419)" xlink:href="#ref2251"/>
        </g>
        <g class="color1">
          <use fill="#62bad4" transform="translate(-17821 -11416.8)" xlink:href="#ref2254"/>
        </g>
        <g class="color2">
          <use fill="#4276BE" transform="matrix(1 0 0 -1 -17821 -11416.8)" xlink:href="#ref2255"/>
        </g>
        <g class="color1">
          <use fill="#62bad4" transform="translate(-17791 -11396.1)" xlink:href="#ref2258"/>
        </g>
        <g class="color2">
          <use fill="#4276BE" transform="matrix(1 0 0 -1 -17791 -11396.1)" xlink:href="#ref2259"/>
        </g>
        <g class="color1">
          <use fill="#62bad4" transform="translate(-17761 -11398.8)" xlink:href="#ref2262"/>
        </g>
        <g class="color2">
          <use fill="#4276BE" transform="matrix(1 0 0 -1 -17761 -11398.8)" xlink:href="#ref2263"/>
        </g>
        <g class="color1">
          <use fill="#62bad4" transform="translate(-17731 -11418.5)" xlink:href="#ref2266"/>
        </g>
        <g class="color2">
          <use fill="#4276BE" transform="matrix(1 0 0 -1 -17731 -11418.5)" xlink:href="#ref2267"/>
        </g>
        <g class="color1">
          <use fill="#62bad4" transform="translate(-17700 -11410)" xlink:href="#ref2270"/>
        </g>
        <g class="color2">
          <use fill="#4276BE" transform="matrix(1 0 0 -1 -17700 -11410)" xlink:href="#ref2271"/>
        </g>
        <g class="color1">
          <use fill="#62bad4" transform="translate(-17671 -11420.2)" xlink:href="#ref2274"/>
        </g>
        <g class="color2">
          <use fill="#4276BE" transform="matrix(1 0 0 -1 -17671 -11420.2)" xlink:href="#ref2275"/>
        </g>
      </g>
    </g>
    <defs>
      <path d="M 0 2C 0 0.895431 0.895431 0 2 0L 270 0C 271.105 0 272 0.895431 272 2L 272 100C 272 101.105 271.105 102 270 102L 2 102C 0.895431 102 0 101.105 0 100L 0 2Z" id="ref2242"/>
      <path d="M 0 0L 26 0L 26 30.2631L 0 30.2631L 0 0Z" id="ref2243"/>
      <path d="M 0 0L 26 0L 26 19.3684L 0 19.3684L 0 0Z" id="ref2244"/>
      <path d="M 0 0L 26 0L 26 12.1052L 0 12.1052L 0 0Z" id="ref2245"/>
      <path d="M 0 0L 26 0L 26 7.26313L 0 7.26313L 0 0Z" id="ref2246"/>
      <path d="M 0 0L 26 0L 26 24L 0 24L 0 0Z" id="ref2247"/>
      <path d="M 0 0L 26 0L 26 6.30003L 0 6.30003L 0 0Z" id="ref2248"/>
      <path d="M 0 0L 26 0L 26 4.90002L 0 4.90002L 0 0Z" id="ref2249"/>
      <path d="M 0 0L 25 0L 25 47L 0 47L 0 0Z" id="ref2250"/>
      <path d="M 0 0L 25 0L 25 7.12255L 0 7.12255L 0 0Z" id="ref2251"/>
      <path d="M 0 0L 25 0L 25 6.69646L 0 6.69646L 0 0Z" id="ref2252"/>
      <path d="M 0 0L 25 0L 25 14L 0 14L 0 0Z" id="ref2253"/>
      <path d="M 0 0L 26 0L 26 44.83L 0 44.83L 0 0Z" id="ref2254"/>
      <path d="M 0 0L 26 0L 26 8.0943L 0 8.0943L 0 0Z" id="ref2255"/>
      <path d="M 0 0L 26 0L 26 6.84902L 0 6.84902L 0 0Z" id="ref2256"/>
      <path d="M 0 0L 26 0L 26 6.22639L 0 6.22639L 0 0Z" id="ref2257"/>
      <path d="M 0 0L 26 0L 26 24.1229L 0 24.1229L 0 0Z" id="ref2258"/>
      <path d="M 0 0L 26 0L 26 15.4387L 0 15.4387L 0 0Z" id="ref2259"/>
      <path d="M 0 0L 26 0L 26 9.64916L 0 9.64916L 0 0Z" id="ref2260"/>
      <path d="M 0 0L 26 0L 26 5.78949L 0 5.78949L 0 0Z" id="ref2261"/>
      <path d="M 0 0L 26 0L 26 26.8125L 0 26.8125L 0 0Z" id="ref2262"/>
      <path d="M 0 0L 26 0L 26 19.25L 0 19.25L 0 0Z" id="ref2263"/>
      <path d="M 0 0L 26 0L 26 12.596L 0 12.596L 0 0Z" id="ref2264"/>
      <path d="M 0 0L 26 0L 26 9.79687L 0 9.79687L 0 0Z" id="ref2265"/>
      <path d="M 0 0L 27 0L 27 46.4956L 0 46.4956L 0 0Z" id="ref2266"/>
      <path d="M 0 0L 27 0L 27 7.6581L 0 7.6581L 0 0Z" id="ref2267"/>
      <path d="M 0 0L 27 0L 27 4.92307L 0 4.92307L 0 0Z" id="ref2268"/>
      <path d="M 0 0L 27 0L 27 15L 0 15L 0 0Z" id="ref2269"/>
      <path d="M 0 0L 25 0L 25 38.0377L 0 38.0377L 0 0Z" id="ref2270"/>
      <path d="M 0 0L 25 0L 25 6.86791L 0 6.86791L 0 0Z" id="ref2271"/>
      <path d="M 0 0L 25 0L 25 5.81131L 0 5.81131L 0 0Z" id="ref2272"/>
      <path d="M 0 0L 25 0L 25 5.28301L 0 5.28301L 0 0Z" id="ref2273"/>
      <path d="M 0 0L 25 0L 25 48.2264L 0 48.2264L 0 0Z" id="ref2274"/>
      <path d="M 0 0L 25 0L 25 8.70754L 0 8.70754L 0 0Z" id="ref2275"/>
      <path d="M 0 0L 25 0L 25 7.36792L 0 7.36792L 0 0Z" id="ref2276"/>
      <path d="M 0 0L 25 0L 25 18L 0 18L 0 0Z" id="ref2277"/>
    </defs>
  </svg>
  <rect fill="#ffffff" height="120" rx="2" ry="2" width="142" x="5" xmlns="http://www.w3.org/2000/svg" y="180"/>
  <svg data-aspect-ratio="square" data-slug="pie" data-variant="a" height="120" preserveAspectRatio="xMidYMid meet" viewBox="0 0 136 102" width="142" x="5" xmlns="http://www.w3.org/2000/svg" y="180">
    <g id="ref3535" transform="translate(17170 12549)">
      <clipPath clip-rule="evenodd" id="ref3532">
        <path d="M -17170 -12549L -17034 -12549L -17034 -12447L -17170 -12447L -17170 -12549Z" fill="#FFFFFF"/>
      </clipPath>
      <g clip-path="url(#ref3532)" id="ref3534">
        <path d="M -17170 -12549L -17034 -12549L -17034 -12447L -17170 -12447L -17170 -12549Z" fill="#FFFFFF"/>
        <g id="ref3533">
          <use fill="#FFFFFF" transform="translate(-17170 -12549)" xlink:href="#ref3536"/>
        </g>
        <g class="color1">
          <use fill="#3eb0d5" transform="translate(-17144 -12540)" xlink:href="#ref3537"/>
        </g>
        <g class="color4">
          <use fill="#592ec2" transform="translate(-17126.7 -12498)" xlink:href="#ref3538"/>
        </g>
        <g class="color3">
          <use fill="#c2dd67" transform="translate(-17102 -12498)" xlink:href="#ref3539"/>
        </g>
        <g class="color2">
          <use fill="#b1399e" transform="translate(-17102 -12540)" xlink:href="#ref3540"/>
        </g>
      </g>
    </g>
    <defs>
      <path d="M 0 2C 0 0.895431 0.895431 0 2 0L 134 0C 135.105 0 136 0.895431 136 2L 136 100C 136 101.105 135.105 102 134 102L 2 102C 0.895431 102 0 101.105 0 100L 0 2Z" id="ref3536"/>
      <path d="M 42.0081 41.9501L 17.3129 75.9096C -1.48342 62.3258 -5.58263 36.0571 8.01474 17.2794C 16.2131 6.09275 28.1108 0 42.0081 0L 42.0081 41.9501Z" id="ref3537"/>
      <path d="M 24.6952 0L 24.6952 41.9501C 15.397 41.9501 7.49855 39.3531 -7.62792e-07 33.9596L 24.6952 0Z" id="ref3538"/>
      <path d="M 0 0L 41.6919 5.09393C 39.0924 26.2687 21.3959 42.0499 0 42.0499L 0 0Z" id="ref3539"/>
      <path d="M 0 41.9501L 0 0C 23.1955 0 41.9919 18.7776 41.9919 41.9501C 41.9919 43.8478 41.8919 45.2461 41.6919 47.044L 0 41.9501Z" id="ref3540"/>
    </defs>
  </svg>
  <svg data-aspect-ratio="square" data-slug="line" data-variant="c" height="120" preserveAspectRatio="none" viewBox="0 0 136 102" width="142" x="152" xmlns="http://www.w3.org/2000/svg" y="180">
    <g id="ref2642" transform="translate(17874 9429)">
      <clipPath clip-rule="evenodd" id="ref2639">
        <path d="M -17874 -9429L -17738 -9429L -17738 -9327L -17874 -9327L -17874 -9429Z" fill="#FFFFFF"/>
      </clipPath>
      <g clip-path="url(#ref2639)" id="ref2641">
        <path d="M -17874 -9429L -17738 -9429L -17738 -9327L -17874 -9327L -17874 -9429Z" fill="#FFFFFF"/>
        <g id="ref2640">
          <use fill="#FFFFFF" transform="translate(-17874 -9429)" xlink:href="#ref2643"/>
        </g>
        <g class="color4">
          <use fill="#592ec2" transform="translate(-17877 -9362.37)" xlink:href="#ref2644"/>
        </g>
        <g class="color2">
          <use fill="#b1399e" transform="translate(-17877 -9410.65)" xlink:href="#ref2645"/>
        </g>
        <g class="color1">
          <use fill="#3eb0d5" transform="translate(-17876 -9387.28)" xlink:href="#ref2646"/>
        </g>
        <g class="color3">
          <use fill="#c2dd67" transform="matrix(-1 -1.22465e-16 1.22465e-16 -1 -17735 -9393.36)" xlink:href="#ref2647"/>
        </g>
      </g>
    </g>
    <defs>
      <path d="M 0 2C 0 0.895431 0.895431 0 2 0L 134 0C 135.105 0 136 0.895431 136 2L 136 100C 136 101.105 135.105 102 134 102L 2 102C 0.895431 102 0 101.105 0 100L 0 2Z" id="ref2643"/>
      <path d="M 70.5 16.3462L 70.0491 18.2947L 70.6683 18.4379L 71.2566 18.1975L 70.5 16.3462ZM 36.369 3.78205L 37.2704 1.99667L 35.9173 1.31359L 34.8939 2.43155L 36.369 3.78205ZM 104.631 22.3462L 103.421 23.9383L 104.631 24.8585L 105.841 23.9383L 104.631 22.3462ZM 121.696 9.3718L 120.823 7.57262L 120.644 7.65941L 120.486 7.77968L 121.696 9.3718ZM 87.5655 9.3718L 88.7759 7.77968L 87.8664 7.08823L 86.8089 7.52044L 87.5655 9.3718ZM 53.4345 12.3974L 52.5332 14.1828L 52.7486 14.2916L 52.9837 14.346L 53.4345 12.3974ZM 19.3036 22.4231L 18.6778 24.3227L 19.9058 24.7272L 20.7788 23.7736L 19.3036 22.4231ZM 105.841 23.9383L 122.907 10.9639L 120.486 7.77968L 103.421 20.754L 105.841 23.9383ZM 122.57 11.171L 141.873 1.79917L 140.127 -1.79917L 120.823 7.57262L 122.57 11.171ZM 86.355 10.9639L 103.421 23.9383L 105.841 20.754L 88.7759 7.77968L 86.355 10.9639ZM 71.2566 18.1975L 88.3221 11.2232L 86.8089 7.52044L 69.7434 14.4948L 71.2566 18.1975ZM 35.4677 5.56743L 52.5332 14.1828L 54.3359 10.6121L 37.2704 1.99667L 35.4677 5.56743ZM 52.9837 14.346L 70.0491 18.2947L 70.9509 14.3976L 53.8854 10.4489L 52.9837 14.346ZM -0.625761 17.9637L 18.6778 24.3227L 19.9293 20.5235L 0.625761 14.1645L -0.625761 17.9637ZM 20.7788 23.7736L 37.8442 5.13255L 34.8939 2.43155L 17.8284 21.0726L 20.7788 23.7736Z" id="ref2644"/>
      <path d="M 70.5 34L 71.7135 32.4102L 70.3652 31.3811L 69.1297 32.5432L 70.5 34ZM 36.369 21.4359L 38.0868 20.4115L 36.1037 17.0862L 34.5395 20.6279L 36.369 21.4359ZM 104.631 0L 106.511 -0.682259L 104.631 -5.86288L 102.751 -0.682259L 104.631 0ZM 121.696 47.0256L 119.816 47.7079L 120.573 49.7941L 122.57 48.8248L 121.696 47.0256ZM 87.5655 47.0256L 86.352 48.6155L 88.5166 50.2676L 89.4455 47.7079L 87.5655 47.0256ZM 53.4345 50.0513L 51.7168 51.0757L 52.9917 53.2135L 54.8048 51.5081L 53.4345 50.0513ZM 19.3036 60.0769L 18.6778 61.9765L 20.4004 62.544L 21.1331 60.8849L 19.3036 60.0769ZM 102.751 0.682259L 119.816 47.7079L 123.576 46.3434L 106.511 -0.682259L 102.751 0.682259ZM 122.57 48.8248L 141.873 39.453L 140.127 35.8547L 120.823 45.2265L 122.57 48.8248ZM 89.4455 47.7079L 106.511 0.682259L 102.751 -0.682259L 85.6854 46.3434L 89.4455 47.7079ZM 69.2865 35.5898L 86.352 48.6155L 88.7789 45.4358L 71.7135 32.4102L 69.2865 35.5898ZM 34.6513 22.4603L 51.7168 51.0757L 55.1523 49.0269L 38.0868 20.4115L 34.6513 22.4603ZM 54.8048 51.5081L 71.8703 35.4568L 69.1297 32.5432L 52.0643 48.5944L 54.8048 51.5081ZM -0.625761 55.6175L 18.6778 61.9765L 19.9293 58.1773L 0.625761 51.8184L -0.625761 55.6175ZM 21.1331 60.8849L 38.1986 22.2439L 34.5395 20.6279L 17.4741 59.2689L 21.1331 60.8849Z" id="ref2645"/>
      <path d="M 70.5 18.2824L 70.5 20.2824L 71.2531 20.2824L 71.8191 19.7857L 70.5 18.2824ZM 36.369 7.7183L 37.2306 5.91339L 36.4499 5.54073L 35.6437 5.85445L 36.369 7.7183ZM 104.631 15.2824L 103.482 16.9196L 103.999 17.2824L 104.631 17.2824L 104.631 15.2824ZM 122.5 15.2824L 122.5 17.2824L 123.205 17.2824L 123.754 16.8408L 122.5 15.2824ZM 87.5655 3.30804L 88.7142 1.67087L 87.4277 0.768145L 86.2464 1.80473L 87.5655 3.30804ZM 58.5 18.2824L 57.6384 20.0873L 58.0471 20.2824L 58.5 20.2824L 58.5 18.2824ZM 19.3036 14.3593L 18.1099 15.964L 18.9977 16.6245L 20.0289 16.2232L 19.3036 14.3593ZM 104.631 17.2824L 122.5 17.2824L 122.5 13.2824L 104.631 13.2824L 104.631 17.2824ZM 123.754 16.8408L 142.754 1.55844L 140.246 -1.55844L 121.246 13.724L 123.754 16.8408ZM 86.4167 4.94522L 103.482 16.9196L 105.78 13.6452L 88.7142 1.67087L 86.4167 4.94522ZM 71.8191 19.7857L 88.8846 4.81136L 86.2464 1.80473L 69.1809 16.7791L 71.8191 19.7857ZM 35.5075 9.52321L 57.6384 20.0873L 59.3616 16.4775L 37.2306 5.91339L 35.5075 9.52321ZM 58.5 20.2824L 70.5 20.2824L 70.5 16.2824L 58.5 16.2824L 58.5 20.2824ZM -1.19368 1.60507L 18.1099 15.964L 20.4972 12.7546L 1.19368 -1.60437L -1.19368 1.60507ZM 20.0289 16.2232L 37.0944 9.58214L 35.6437 5.85445L 18.5783 12.4955L 20.0289 16.2232Z" id="ref2646"/>
      <path d="M 70.5 0.564103L 71.065 -1.35443L 70.0403 -1.65621L 69.2196 -0.97234L 70.5 0.564103ZM 36.369 0L 37.2306 -1.80491L 36.4499 -2.17757L 35.6437 -1.86385L 36.369 0ZM 104.631 7.5641L 104.401 9.55085L 104.631 9.57744L 104.861 9.55085L 104.631 7.5641ZM 121.696 5.58975L 121.885 3.59869L 121.676 3.5788L 121.467 3.603L 121.696 5.58975ZM 87.5655 5.58975L 87.0005 7.50828L 87.1651 7.55677L 87.3356 7.57649L 87.5655 5.58975ZM 58.5 10.5641L 57.6384 12.369L 58.7955 12.9213L 59.7804 12.1005L 58.5 10.5641ZM 19.3036 6.64103L 18.863 8.59191L 19.4593 8.72654L 20.0289 8.50487L 19.3036 6.64103ZM 104.861 9.55085L 121.926 7.57649L 121.467 3.603L 104.401 5.57735L 104.861 9.55085ZM 121.507 7.5808L 142.311 9.55498L 142.689 5.57287L 121.885 3.59869L 121.507 7.5808ZM 87.3356 7.57649L 104.401 9.55085L 104.861 5.57735L 87.7953 3.603L 87.3356 7.57649ZM 69.935 2.48264L 87.0005 7.50828L 88.1305 3.67121L 71.065 -1.35443L 69.935 2.48264ZM 35.5075 1.80491L 57.6384 12.369L 59.3616 8.75919L 37.2306 -1.80491L 35.5075 1.80491ZM 59.7804 12.1005L 71.7804 2.10055L 69.2196 -0.97234L 57.2196 9.02766L 59.7804 12.1005ZM -0.440532 4.23293L 18.863 8.59191L 19.7441 4.69015L 0.440532 0.331172L -0.440532 4.23293ZM 20.0289 8.50487L 37.0944 1.86385L 35.6437 -1.86385L 18.5783 4.77718L 20.0289 8.50487Z" id="ref2647"/>
    </defs>
  </svg>
  <rect fill="#ffffff" height="20" rx="2" ry="2" width="142" x="5" xmlns="http://www.w3.org/2000/svg" y="305"/>
  <svg height="20" preserveAspectRatio="xMidYMid meet" viewBox="0 0 710 50" width="142" x="5" xmlns="http://www.w3.org/2000/svg" y="305">
    <line class="color1" stroke="#B32F37" stroke-linecap="round" stroke-width="16" x1="176" x2="533" y1="25" y2="25"/>
  </svg>
  <rect fill="#ffffff" height="20" rx="2" ry="2" width="142" x="152" xmlns="http://www.w3.org/2000/svg" y="305"/>
  <svg height="20" preserveAspectRatio="xMidYMid meet" viewBox="0 0 710 50" width="142" x="152" xmlns="http://www.w3.org/2000/svg" y="305">
    <line class="color1" stroke="#4276BE" stroke-linecap="round" stroke-width="16" x1="251" x2="458" y1="25" y2="25"/>
  </svg>
</svg>
